# xmcd CD database file
#
# Track frame offsets:
#	150
#	12989
#	30307
#	43575
#	59029
#	75019
#	90540
#	108236
#	122613
#	136962
#	150219
#	166045
#	182806
#	200562
#	219238
#	238665
#
# Disc length: 3361 seconds
#
# Revision: 0
# Processed by: cddbd v1.4PL0 Copyright (c) Steve Scherf et al.
# Submitted via: Feurio! 1.66 - http://www.feurio.com
#
DISCID=bc0d1f10
DTITLE=Sertanejas Varios - Só Forró 2003
DYEAR=1900
DGENRE=
TTITLE0=Amor de raparigas
TTITLE1=Ando calado
TTITLE2=Te quero mas nâo como amigo
TTITLE3=Nâo é nada disso (Bicicleta)
TTITLE4=Toma conta de mim
TTITLE5=Luz, Camera, Açâo
TTITLE6=Linda cançâo
TTITLE7=Se vocé vai
TTITLE8=Amor e perdâo
TTITLE9=Resposta da rapariga
TTITLE10=O inverno acabou
TTITLE11=Amor ou amizade
TTITLE12=Giripoca vai piar
TTITLE13=Fala a verdade
TTITLE14=Maridos e esposas
TTITLE15=Desfaz as malas
EXTD=
EXTT0=
EXTT1=
EXTT2=
EXTT3=
EXTT4=
EXTT5=
EXTT6=
EXTT7=
EXTT8=
EXTT9=
EXTT10=
EXTT11=
EXTT12=
EXTT13=
EXTT14=
EXTT15=
PLAYORDER=
